<svg width="96" height="96" viewBox="0 0 96 96" fill="none" xmlns="http://www.w3.org/2000/svg" role="img" aria-labelledby="title desc">
  <title id="title">Woman support operator</title>
  <desc id="desc">A woman support operator wearing a headset.</desc>
  <rect width="96" height="96" rx="22" fill="#19D7C2"/>
  <circle cx="48" cy="48" r="34" fill="#D8F8F4"/>
  <path d="M29 48C29 35.8 37.4 27 48.3 27C59.3 27 67 35.5 67 48.1V59.5C67 64.7 62.8 69 57.6 69H39.1C33.5 69 29 64.5 29 58.9V48Z" fill="#0B1F3A"/>
  <path d="M34 45.4C34 35.4 39.8 29.5 48.5 29.5C57.2 29.5 63 35.4 63 45.4V50C63 60 57.2 66.5 48.5 66.5C39.8 66.5 34 60 34 50V45.4Z" fill="#F4C6A8"/>
  <path d="M33.8 45.6C38.2 43.6 43.6 39.6 46.1 34.2C50.2 41 57.6 44.1 63.2 45.3C62.5 35.6 56.7 29.5 48.5 29.5C40.2 29.5 34.5 35.6 33.8 45.6Z" fill="#0B1F3A"/>
  <path d="M39.5 50.8C40.7 52.3 42.5 53.1 44.5 52.9" stroke="#0B1F3A" stroke-width="2.4" stroke-linecap="round"/>
  <path d="M52.5 52.9C54.5 53.1 56.3 52.3 57.5 50.8" stroke="#0B1F3A" stroke-width="2.4" stroke-linecap="round"/>
  <path d="M44 59.3C46.8 61.5 50.2 61.5 53 59.3" stroke="#0B1F3A" stroke-width="2.6" stroke-linecap="round"/>
  <path d="M25.5 49.5C25.5 36.9 35.6 26.8 48.2 26.8C60.9 26.8 71 36.9 71 49.5" stroke="#1B7DFF" stroke-width="5.4" stroke-linecap="round"/>
  <rect x="22" y="46" width="9" height="16" rx="4.5" fill="#1B7DFF"/>
  <rect x="65" y="46" width="9" height="16" rx="4.5" fill="#1B7DFF"/>
  <path d="M70 58.5C70 66.2 64.8 72 56.2 72H51" stroke="#1B7DFF" stroke-width="4.4" stroke-linecap="round"/>
  <rect x="47" y="68" width="10" height="7" rx="3.5" fill="#F2A83B"/>
</svg>
